<?xml version="1.0" encoding="UTF-8"?>
<svg  viewBox="0 0 24 24" version="1.1" xmlns="http://www.w3.org/2000/svg" xmlns:xlink="http://www.w3.org/1999/xlink">
    <title>icon-twitter</title>
    <defs>
        <path d="M21,6.82927 C20.3636,7.10366 19.6364,7.37805 18.9091,7.46951 C19.6364,6.92073 20.1818,6.18902 20.4545,5.27439 C19.7273,5.731707 19,6.0061 18.1818,6.18902 C17.5455,5.457317 16.5455,5 15.5455,5 C13.5455,5 11.90909,6.64634 11.90909,8.75 C11.90909,9.02439 11.90909,9.29878 12,9.57317 C9,9.39024 6.27273,7.92683 4.45454,5.640244 C4.09091,6.28049 3.909091,6.92073 3.909091,7.65244 C3.909091,8.93293 4.63636,10.12195 5.54545,10.7622 C4.90909,10.7622 4.36364,10.57927 3.909091,10.30488 C3.909091,10.30488 3.909091,10.30488 3.909091,10.39634 C3.909091,12.22561 5.18182,13.78049 6.81818,14.05488 C6.54545,14.14634 6.18182,14.14634 5.81818,14.14634 C5.54545,14.14634 5.36363,14.14634 5.09091,14.05488 C5.54545,15.5183 6.90909,16.6159 8.45454,16.7073 C7.18182,17.7134 5.63636,18.3537 3.909091,18.3537 C3.636364,18.3537 3.363638,18.3537 3,18.2622 C4.63636,19.3598 6.54545,20 8.54545,20 C15.2727,20 18.9091,14.23781 18.9091,9.29878 C18.9091,9.11585 18.9091,8.93293 18.9091,8.84146 C19.9091,8.20122 20.4545,7.56098 21,6.82927 Z" id="path-1"></path>
    </defs>
    <g id="icon-twitter" stroke="none" stroke-width="1" fill="none" fill-rule="evenodd">
        <mask id="mask-2" fill="white">
            <use xlink:href="#path-1"></use>
        </mask>
        <use id="Path" fill="#000000" fill-rule="nonzero" xlink:href="#path-1"></use>
    </g>
</svg>