<?xml version="1.0" encoding="UTF-8"?>
<svg  viewBox="0 0 24 24" version="1.1" xmlns="http://www.w3.org/2000/svg" xmlns:xlink="http://www.w3.org/1999/xlink">
    <title>icon-rs-insta</title>
    <defs>
        <path d="M11.9958615,3.80175385 C14.6667692,3.80175385 14.9800154,3.8134 16.0358308,3.86110769 C17.0120154,3.90467692 17.5396923,4.06730769 17.8927692,4.20627692 C18.3612308,4.38881538 18.6943077,4.60329231 19.0436923,4.95223077 C19.3929231,5.30153846 19.6112308,5.63506154 19.7895385,6.10306154 C19.9244615,6.45650769 20.0912308,6.98423077 20.1347692,7.96041538 C20.1824615,9.01584615 20.1944615,9.32947692 20.1944615,12 C20.1944615,14.6705231 20.1824615,14.9841538 20.1347692,16.0395846 C20.0912308,17.0157692 19.9286154,17.5435385 19.7895385,17.8969231 C19.6070769,18.3649231 19.3929231,18.6984615 19.0436923,19.0478462 C18.6943077,19.3967692 18.3612308,19.6149231 17.8927692,19.7936923 C17.5396923,19.9286154 17.0120154,20.0953846 16.0358308,20.1389231 C14.9800154,20.1866154 14.6667692,20.1983077 11.9958615,20.1983077 C9.32533846,20.1983077 9.01172308,20.1866154 7.95627692,20.1389231 C6.98009231,20.0953846 6.45236923,19.9326154 6.09930769,19.7936923 C5.63093846,19.6112308 5.29776923,19.3967692 4.94846154,19.0478462 C4.59915385,18.6984615 4.38093846,18.3649231 4.20252308,17.8969231 C4.06730769,17.5435385 3.90092308,17.0157692 3.85696923,16.0395846 C3.80964615,14.9841538 3.79763077,14.6705231 3.79763077,12 C3.79763077,9.32947692 3.80964615,9.01584615 3.85696923,7.96041538 C3.90092308,6.98423077 4.06355385,6.45650769 4.20252308,6.10306154 C4.38506154,5.63506154 4.59915385,5.30153846 4.94846154,4.95223077 C5.29776923,4.60329231 5.63093846,4.38506154 6.09930769,4.20627692 C6.45236923,4.07144615 6.98009231,3.90467692 7.95627692,3.86110769 C9.01172308,3.80964615 9.32947692,3.80175385 11.9958615,3.80175385 Z M11.9958615,2 C9.28176923,2 8.94035385,2.01201923 7.87289231,2.05934492 C6.80956923,2.10704631 6.08315385,2.27794462 5.4484,2.52396308 C4.78958462,2.77786923 4.23407692,3.12304615 3.67855385,3.67855385 C3.12304615,4.23407692 2.78162615,4.79372308 2.52396308,5.4484 C2.27794462,6.08315385 2.10704631,6.80956923 2.05934492,7.87703077 C2.01201923,8.94035385 2,9.28176923 2,11.9958615 C2,14.7103385 2.01201923,15.0517538 2.05934492,16.1192154 C2.10704631,17.1825385 2.27794462,17.9086154 2.52396308,18.5475385 C2.77786923,19.2063077 3.12304615,19.7618462 3.67855385,20.3172308 C4.23407692,20.8732308 4.79372308,21.2143077 5.4484,21.4723077 C6.08315385,21.7183077 6.80956923,21.8887692 7.87703077,21.9364615 C8.94449231,21.9841538 9.28176923,21.9958462 12,21.9958462 C14.7182308,21.9958462 15.0555077,21.9841538 16.1229692,21.9364615 C17.1866769,21.8887692 17.9127692,21.7183077 18.5515385,21.4723077 C19.2104615,21.2183077 19.766,20.8732308 20.3213846,20.3172308 C20.8769231,19.7618462 21.2183077,19.2024615 21.476,18.5475385 C21.722,17.9127692 21.8929231,17.1866769 21.9406154,16.1192154 C21.988,15.0517538 22,14.7144615 22,11.9958615 C22,9.27764615 21.988,8.94035385 21.9406154,7.87289231 C21.8929231,6.80956923 21.722,6.08315385 21.476,5.44426154 C21.2221538,4.78583077 20.8769231,4.23032308 20.3213846,3.67443077 C19.766,3.11891538 19.2063077,2.77786923 18.5515385,2.51983231 C17.9167692,2.27381385 17.1904308,2.10329031 16.1229692,2.05558892 C15.0517538,2.01201923 14.7103385,2 11.9958615,2 Z M11.9962462,6.86515385 C9.16309231,6.86515385 6.8614,9.16270769 6.8614,12 C6.8614,14.8372923 9.15895385,17.1348462 11.9962462,17.1348462 C14.8335385,17.1348462 17.1310923,14.8372923 17.1310923,12 C17.1310923,9.16270769 14.8335385,6.86515385 11.9962462,6.86515385 Z M11.9962462,15.3293231 C10.1550462,15.3293231 8.66315385,13.8374462 8.66315385,11.9962462 C8.66315385,10.1546769 10.1550462,8.66278462 11.9962462,8.66278462 C13.8374462,8.66278462 15.3297077,10.1546769 15.3297077,11.9962462 C15.3297077,13.8374462 13.8374462,15.3293231 11.9962462,15.3293231 Z M18.5313846,6.65858462 C18.5313846,7.32038462 17.9949231,7.85673846 17.3331538,7.85673846 C16.6713538,7.85673846 16.1346154,7.32038462 16.1346154,6.65858462 C16.1346154,5.99676923 16.6713538,5.46003077 17.3331538,5.46003077 C17.9949231,5.46003077 18.5313846,5.99676923 18.5313846,6.65858462 Z" id="path-1"></path>
    </defs>
    <g id="icon-rs-insta" stroke="none" stroke-width="1" fill="none" fill-rule="evenodd">
        <mask id="mask-2" fill="white">
            <use xlink:href="#path-1"></use>
        </mask>
        <use id="Shape" fill="#000000" xlink:href="#path-1"></use>
    </g>
</svg>