<?xml version="1.0" encoding="UTF-8"?>
<svg  viewBox="0 0 24 24" version="1.1" xmlns="http://www.w3.org/2000/svg" xmlns:xlink="http://www.w3.org/1999/xlink">
    <title>icon-fb</title>
    <defs>
        <path d="M21,3 L4,3 C3.5,3 3,3.5 3,4 L3,21 C3,21.6 3.5,22 4,22 L13,22 L13,15 L10,15 L10,12 L13,12 L13,9.7 C13,7.2 14.5,5.9 16.7,5.9 C17.7,5.9 18.6,6 18.9,6 L18.9,8.6 L17.4,8.6 C16.2,8.6 16,9.2 16,10 L16,12 L18.8,12 L18.4,15 L16,15 L16,22 L21,22 C21.6,22 22,21.5 22,21 L22,4 C22,3.5 21.5,3 21,3 Z" id="path-1"></path>
    </defs>
    <g id="icon-fb" stroke="none" stroke-width="1" fill="none" fill-rule="evenodd">
        <mask id="mask-2" fill="white">
            <use xlink:href="#path-1"></use>
        </mask>
        <use id="Path" fill="#000000" fill-rule="nonzero" xlink:href="#path-1"></use>
    </g>
</svg>