<?xml version="1.0" encoding="UTF-8"?>
<svg  viewBox="0 0 24 24" version="1.1" xmlns="http://www.w3.org/2000/svg" xmlns:xlink="http://www.w3.org/1999/xlink">
    <title>icon-rs-linkedin</title>
    <defs>
        <path d="M6.52,20.8600334 L2.52,20.8600334 L2.52,8.06003335 L6.52,8.06003335 L6.52,20.8600334 Z M4.42,6.45003335 L4.42,6.45003335 C3.79914486,6.50619468 3.18328454,6.29872981 2.72296119,5.87835187 C2.26263784,5.45797393 2.00027312,4.86342338 2,4.24003335 C2,3.60944657 2.26586563,3.00808298 2.73220359,2.58362026 C3.19854156,2.15915754 3.82219046,1.95091584 4.45,2.01003335 C5.29343974,1.92988749 6.10944361,2.33462287 6.55601882,3.05461214 C7.00259403,3.7746014 7.00259403,4.6854653 6.55601882,5.40545457 C6.10944361,6.12544383 5.29343974,6.53017921 4.45,6.45003335 L4.42,6.45003335 Z M22.53,20.8500334 L17.99,20.8500334 L17.99,14.2300334 C17.99,12.5000334 17.28,11.3100334 15.72,11.3100334 C14.7341243,11.3116988 13.8599687,11.9441525 13.55,12.8800334 C13.460674,13.2053724 13.4268664,13.5434484 13.45,13.8800334 L13.45,20.8100334 L8.96,20.8100334 C8.96,20.8100334 9.02,9.07003335 8.96,8.01003335 L13.45,8.01003335 L13.45,10.0100334 C13.72,9.13003335 15.15,7.88003335 17.45,7.88003335 C20.29,7.88003335 22.53,9.72003335 22.53,13.6900334 L22.53,20.8500334 Z" id="path-1"></path>
    </defs>
    <g id="icon-rs-linkedin" stroke="none" stroke-width="1" fill="none" fill-rule="evenodd">
        <mask id="mask-2" fill="white">
            <use xlink:href="#path-1"></use>
        </mask>
        <use id="Shape" fill="#000000" fill-rule="nonzero" xlink:href="#path-1"></use>
    </g>
</svg>